<svg width="116" height="33" viewBox="0 0 116 33" fill="none" xmlns="http://www.w3.org/2000/svg">
<path d="M5.41373 21.5139C5.01316 20.8414 5.28979 19.9701 6.00488 19.6518L12.3384 16.8329C12.7212 16.6625 13.1625 16.6861 13.525 16.8963L17.144 18.9951C17.5046 19.2042 17.7437 19.5728 17.7877 19.9873L18.5267 26.9466C18.6091 27.7227 17.9972 28.3973 17.2168 28.3909L14.2892 28.3669C13.5013 28.3604 12.8984 27.6632 13.0057 26.8826L13.5911 22.6235C13.6392 22.2742 13.4707 21.9306 13.1651 21.7546C12.8591 21.5784 12.4767 21.6054 12.1986 21.823L8.86447 24.4316C8.24462 24.9166 7.33985 24.7474 6.93709 24.0713L5.41373 21.5139Z" fill="white"/>
<path fill-rule="evenodd" clip-rule="evenodd" d="M19.1675 18.8047L24.7643 22.9216C25.0812 23.1547 25.5307 23.0569 25.7221 22.7131L27.1725 20.1077C27.3635 19.7646 27.2107 19.3317 26.8467 19.1844L22.8812 17.5802C22.3069 17.3479 21.931 16.7903 21.931 16.1708C21.931 15.5552 22.3022 15.0004 22.8712 14.7655L26.8506 13.1228C27.2128 12.9733 27.3628 12.5407 27.1708 12.1991L25.7256 9.62725C25.5334 9.28521 25.0852 9.18859 24.7691 9.42106L19.1675 13.5414C19.0001 13.6645 18.9013 13.8599 18.9013 14.0676V18.2785C18.9013 18.4862 19.0001 18.6816 19.1675 18.8047ZM18.7804 19.3308C18.4457 19.0847 18.2481 18.6939 18.2481 18.2785V14.0676C18.2481 13.6521 18.4457 13.2614 18.7804 13.0152L24.3821 8.89488C25.0142 8.42992 25.9106 8.62318 26.2951 9.30726L27.7402 11.8791C28.1242 12.5623 27.8243 13.4276 27.0998 13.7266L23.1205 15.3693C22.7959 15.5033 22.5842 15.8197 22.5842 16.1708C22.5842 16.5242 22.7986 16.8422 23.1261 16.9747L27.0917 18.5789C27.8197 18.8734 28.1252 19.7392 27.7432 20.4254L26.2928 23.0308C25.9101 23.7183 25.011 23.914 24.3772 23.4478L18.7804 19.3308Z" fill="#2DEBFC"/>
<path d="M17.1441 13.3029C17.5047 13.0938 17.7438 12.7252 17.7878 12.3108L18.5255 5.36354C18.6083 4.5832 17.9894 3.90642 17.2048 3.91937L14.2768 3.96773C13.4933 3.98066 12.8974 4.67559 13.0041 5.45186L13.591 9.72164C13.6392 10.0719 13.4702 10.4164 13.1638 10.5928C12.8583 10.7686 12.477 10.7425 12.1984 10.5266L8.81845 7.90777C8.19711 7.42634 7.29439 7.59864 6.89404 8.27507L5.40812 10.7857C5.01021 11.458 5.28742 12.327 6.00116 12.6446L12.3384 15.4652C12.7213 15.6356 13.1626 15.612 13.5251 15.4018L17.1441 13.3029Z" fill="#2C85FC"/>
<path d="M48.0726 15.0613V23.5637H51.2361V12.7283H46.629V15.0613H48.0726Z" fill="white"/>
<path d="M47.9735 11.2059C48.2635 11.509 48.7051 11.6606 49.2982 11.6606C49.8917 11.6606 50.3264 11.509 50.603 11.2059C50.8933 10.8894 51.038 10.494 51.038 10.0196C51.038 9.5318 50.8933 9.13631 50.603 8.83323C50.3264 8.51688 49.8917 8.35864 49.2982 8.35864C48.7051 8.35864 48.2635 8.51688 47.9735 8.83323C47.6969 9.13631 47.5584 9.5318 47.5584 10.0196C47.5584 10.494 47.6969 10.8894 47.9735 11.2059Z" fill="white"/>
<path d="M72.6699 23.5131C72.96 23.8162 73.4015 23.9677 73.9946 23.9677C74.5881 23.9677 75.0228 23.8162 75.2994 23.5131C75.5897 23.1966 75.7344 22.8011 75.7344 22.3267C75.7344 21.8389 75.5897 21.4434 75.2994 21.1404C75.0228 20.824 74.5881 20.6658 73.9946 20.6658C73.4015 20.6658 72.96 20.824 72.6699 21.1404C72.3933 21.4434 72.2548 21.8389 72.2548 22.3267C72.2548 22.8011 72.3933 23.1966 72.6699 23.5131Z" fill="white"/>
<path d="M37.0596 23.3262C37.9558 23.7348 39.0564 23.9392 40.3612 23.9392C41.5872 23.9392 42.6415 23.7482 43.525 23.3657C44.4081 22.9836 45.0868 22.4496 45.5613 21.7644C46.0493 21.0655 46.2929 20.2548 46.2929 19.3322C46.2929 18.4359 46.0627 17.6779 45.6012 17.0583C45.1528 16.4256 44.527 15.9313 43.7226 15.5755C42.9185 15.2063 41.9893 14.9757 40.9347 14.8835L39.8275 14.7846C39.1684 14.7317 38.6939 14.5539 38.4039 14.2507C38.1138 13.9475 37.9688 13.5916 37.9688 13.1831C37.9688 12.8666 38.0482 12.5767 38.2059 12.313C38.3643 12.0362 38.6015 11.8187 38.9179 11.6605C39.2475 11.5024 39.6495 11.4233 40.1241 11.4233C40.6248 11.4233 41.0402 11.5154 41.3697 11.7001C41.4422 11.7391 41.5111 11.7808 41.5758 11.8251L41.5915 11.8361C41.6157 11.8528 41.6395 11.8701 41.6627 11.8876C41.8629 12.0406 42.0223 12.222 42.1408 12.4316C42.312 12.7217 42.3982 13.0446 42.3982 13.4005H45.5613C45.5613 12.4514 45.3438 11.6275 44.9091 10.929C44.4741 10.2172 43.848 9.67014 43.0308 9.28775C42.2264 8.8923 41.2577 8.69458 40.1241 8.69458C39.043 8.69458 38.1073 8.87924 37.3163 9.24827C36.5256 9.60423 35.906 10.1183 35.4579 10.7905C35.0226 11.4628 34.805 12.2604 34.805 13.1831C34.805 14.4616 35.2339 15.4897 36.0905 16.2676C36.9472 17.0453 38.0942 17.4934 39.531 17.612L40.6185 17.7109C41.5014 17.79 42.1408 17.968 42.5364 18.2447C42.9315 18.5083 43.1295 18.8708 43.1295 19.3322C43.1295 19.5442 43.0948 19.7431 43.0253 19.9289C42.9737 20.0667 42.9031 20.1974 42.8133 20.3208C42.602 20.5978 42.2924 20.815 41.8838 20.9734C41.4752 21.1314 40.9677 21.2105 40.3612 21.2105C39.689 21.2105 39.142 21.1184 38.7203 20.9338C38.2984 20.7359 37.9822 20.4789 37.7709 20.1627C37.5733 19.8462 37.4747 19.5036 37.4747 19.1344H34.3308C34.3308 20.0703 34.5614 20.9009 35.0226 21.6259C35.484 22.3376 36.163 22.9046 37.0596 23.3262Z" fill="white"/>
<path d="M79.8828 23.3262C80.7789 23.7348 81.8796 23.9392 83.1844 23.9392C84.4104 23.9392 85.4647 23.7482 86.3482 23.3657C87.2313 22.9836 87.91 22.4496 88.3845 21.7644C88.8725 21.0655 89.1161 20.2548 89.1161 19.3322C89.1161 18.4359 88.8859 17.6779 88.4244 17.0583C87.9759 16.4256 87.3502 15.9313 86.5458 15.5755C85.7417 15.2063 84.8125 14.9757 83.7579 14.8835L82.6507 14.7846C81.9916 14.7317 81.5171 14.5539 81.227 14.2507C80.937 13.9475 80.792 13.5916 80.792 13.1831C80.792 12.8666 80.8714 12.5767 81.0291 12.313C81.1875 12.0362 81.4246 11.8187 81.7411 11.6605C82.0707 11.5024 82.4727 11.4233 82.9473 11.4233C83.4479 11.4233 83.8634 11.5154 84.1929 11.7001C84.2654 11.7391 84.3343 11.7808 84.399 11.8251L84.4147 11.8361C84.4388 11.8528 84.4627 11.8701 84.4859 11.8876C84.6861 12.0406 84.8455 12.222 84.964 12.4316C85.1352 12.7217 85.2214 13.0446 85.2214 13.4005H88.3845C88.3845 12.4514 88.167 11.6275 87.7323 10.929C87.2973 10.2172 86.6712 9.67014 85.854 9.28775C85.0496 8.8923 84.0809 8.69458 82.9473 8.69458C81.8662 8.69458 80.9305 8.87924 80.1395 9.24827C79.3488 9.60423 78.7292 10.1183 78.2811 10.7905C77.8457 11.4628 77.6282 12.2604 77.6282 13.1831C77.6282 14.4616 78.057 15.4897 78.9137 16.2676C79.7704 17.0453 80.9174 17.4934 82.3541 17.612L83.4417 17.7109C84.3245 17.79 84.964 17.968 85.3595 18.2447C85.7547 18.5083 85.9526 18.8708 85.9526 19.3322C85.9526 19.5442 85.918 19.7431 85.8485 19.9289C85.7969 20.0667 85.7263 20.1974 85.6365 20.3208C85.4252 20.5978 85.1156 20.815 84.707 20.9734C84.2984 21.1314 83.7909 21.2105 83.1844 21.2105C82.5122 21.2105 81.9652 21.1184 81.5435 20.9338C81.1216 20.7359 80.8054 20.4789 80.5941 20.1627C80.3965 19.8462 80.2979 19.5036 80.2979 19.1344H77.154C77.154 20.0703 77.3846 20.9009 77.8457 21.6259C78.3072 22.3376 78.9862 22.9046 79.8828 23.3262Z" fill="white"/>
<path d="M58.2947 23.7018C57.2006 23.7018 56.3175 23.5702 55.6453 23.3063C54.9728 23.0297 54.4787 22.5751 54.1622 21.9424C53.8591 21.2964 53.7076 20.4264 53.7076 19.3322V15.0416H52.0664V12.7283H53.7076V9.802H56.6535V12.7283H59.8173V15.0416H56.6535V19.451C56.6535 19.965 56.7855 20.3604 57.049 20.637C57.3257 20.9009 57.7147 21.0325 58.2157 21.0325H59.8173V23.7018H58.2947Z" fill="white"/>
<path d="M107.551 23.7018C106.457 23.7018 105.573 23.5702 104.901 23.3063C104.229 23.0297 103.735 22.5751 103.418 21.9424C103.115 21.2964 102.964 20.4264 102.964 19.3322V15.0416H101.322V12.7283H102.964V9.802H105.91V12.7283H109.073V15.0416H105.91V19.451C105.91 19.965 106.042 20.3604 106.305 20.637C106.582 20.9009 106.971 21.0325 107.472 21.0325H109.073V23.7018H107.551Z" fill="white"/>
<path fill-rule="evenodd" clip-rule="evenodd" d="M63.6261 23.4647C64.3378 23.7812 65.1553 23.9393 66.0779 23.9393C66.9872 23.9393 67.7916 23.7812 68.4902 23.4647C69.1888 23.1482 69.7689 22.7067 70.23 22.14C70.6915 21.573 71.0015 20.9273 71.1592 20.2023H68.2528C68.1212 20.5318 67.8707 20.8085 67.5016 21.0325C67.1325 21.2569 66.6577 21.3689 66.0779 21.3689C65.7187 21.3689 65.3976 21.3264 65.1148 21.2412C64.8996 21.1765 64.7065 21.0874 64.5357 20.9734C64.1402 20.7098 63.8502 20.3404 63.6657 19.8661C63.6144 19.731 63.5706 19.5896 63.5337 19.4423C63.4962 19.2932 63.4658 19.1379 63.4429 18.9764H71.3571V17.9086C71.3571 16.92 71.1461 16.0105 70.7245 15.1801C70.3025 14.3363 69.6895 13.6575 68.8857 13.1434C68.0947 12.6162 67.1191 12.3525 65.9591 12.3525C65.0759 12.3525 64.2849 12.5108 63.5863 12.8271C62.9014 13.1302 62.3279 13.5454 61.8664 14.0727C61.4052 14.6 61.0492 15.1998 60.7984 15.8721C60.5613 16.531 60.4427 17.2231 60.4427 17.9481V18.3436C60.4427 19.0423 60.5613 19.7276 60.7984 20.3999C61.0492 21.059 61.4052 21.6586 61.8664 22.1991C62.341 22.7266 62.9272 23.1482 63.6261 23.4647ZM63.4975 17.0212C63.5063 16.9794 63.5154 16.9381 63.5255 16.8975C63.553 16.7858 63.5847 16.6786 63.6206 16.5763C63.6408 16.518 63.6624 16.4612 63.6856 16.4059C63.8832 15.9181 64.1732 15.5491 64.5553 15.2987C64.6984 15.2051 64.8532 15.129 65.0194 15.0704C65.299 14.9722 65.6125 14.923 65.9591 14.923C66.4999 14.923 66.9477 15.0483 67.3037 15.2987C67.6727 15.5359 67.9497 15.8852 68.1342 16.3466C68.1492 16.3838 68.1633 16.4217 68.177 16.46C68.1989 16.5212 68.2191 16.5839 68.2381 16.6482C68.2658 16.7439 68.2903 16.8429 68.3119 16.9453C68.3276 17.0208 68.341 17.098 68.353 17.1771H63.4671C63.4762 17.1242 63.4864 17.0723 63.4975 17.0212Z" fill="white"/>
<path fill-rule="evenodd" clip-rule="evenodd" d="M93.0747 23.4647C93.7864 23.7812 94.6039 23.9393 95.5265 23.9393C96.4358 23.9393 97.2402 23.7812 97.9388 23.4647C98.6374 23.1482 99.2175 22.7067 99.6786 22.14C100.14 21.573 100.45 20.9273 100.608 20.2023H97.7014C97.5698 20.5318 97.3193 20.8085 96.9502 21.0325C96.5811 21.2569 96.1063 21.3689 95.5265 21.3689C95.1673 21.3689 94.8462 21.3264 94.5634 21.2412C94.3482 21.1765 94.1551 21.0874 93.9843 20.9734C93.5888 20.7098 93.2988 20.3404 93.1143 19.8661C93.063 19.731 93.0192 19.5896 92.9823 19.4423C92.9448 19.2932 92.9144 19.1379 92.8915 18.9764H100.806V17.9086C100.806 16.92 100.595 16.0105 100.173 15.1801C99.7511 14.3363 99.1381 13.6575 98.3343 13.1434C97.5433 12.6162 96.5678 12.3525 95.4077 12.3525C94.5245 12.3525 93.7335 12.5108 93.0349 12.8271C92.35 13.1302 91.7765 13.5454 91.315 14.0727C90.8539 14.6 90.4979 15.1998 90.247 15.8721C90.0099 16.531 89.8914 17.2231 89.8914 17.9481V18.3436C89.8914 19.0423 90.0099 19.7276 90.247 20.3999C90.4979 21.059 90.8539 21.6586 91.315 22.1991C91.7896 22.7266 92.3758 23.1482 93.0747 23.4647ZM92.9461 17.0212C92.9549 16.9794 92.964 16.9381 92.9742 16.8975C93.0016 16.7858 93.0333 16.6786 93.0692 16.5763C93.0894 16.518 93.111 16.4612 93.1342 16.4059C93.3318 15.9181 93.6218 15.5491 94.0039 15.2987C94.147 15.2051 94.3018 15.129 94.468 15.0704C94.7476 14.9722 95.0611 14.923 95.4077 14.923C95.9485 14.923 96.3963 15.0483 96.7523 15.2987C97.1213 15.5359 97.3983 15.8852 97.5828 16.3466C97.5979 16.3838 97.6119 16.4217 97.6256 16.46C97.6475 16.5212 97.6677 16.5839 97.6867 16.6482C97.7145 16.7439 97.7389 16.8429 97.7605 16.9453C97.7762 17.0208 97.7896 17.098 97.8017 17.1771H92.9157C92.9248 17.1242 92.935 17.0723 92.9461 17.0212Z" fill="white"/>
</svg>
